<?xml version="1.0" encoding="UTF-8"?>
<svg id="Capa_2" data-name="Capa 2" xmlns="http://www.w3.org/2000/svg" viewBox="0 0 98.92 114.54">
  <defs>
    <style>
      .cls-1 {
        fill: #fcf0a7;
      }

      .cls-2 {
        fill: #ffd41f;
      }

      .cls-3 {
        fill: #ecb4a7;
      }

      .cls-4 {
        fill: #460c2b;
      }

      .cls-5 {
        fill: #c19f10;
      }

      .cls-6 {
        fill: #f5c2d9;
      }

      .cls-7 {
        fill: #fefefe;
      }
    </style>
  </defs>
  <g id="Capa_1-2" data-name="Capa 1">
    <g>
      <path class="cls-4" d="M22.93,114.54c-.15-.38-.54-.36-.83-.49-3.3-1.53-4.47-5.34-2.52-8.44,.92-1.47,1.89-2.92,2.94-4.3,.6-.79,.63-1.19-.24-1.86-8.3-6.46-13.91-14.78-16.18-25.08-3.5-15.9,.51-29.83,11.7-41.66,.95-1,.83-2.13-.31-2.9-.43-.29-.62,.08-.85,.24-1.97,1.31-3.92,2.65-5.89,3.97-3.66,2.44-7.57,1.22-9.17-2.86C-4.21,16.38,6.68,.2,22.52,0c4.75-.06,9.1,1.18,13.04,3.82,.63,.42,.88,.39,1.33-.27,2.48-3.63,7.12-4.47,10.58-1.99,3.52,2.52,4.19,7.18,1.52,10.77-.37,.5-.49,.87-.22,1.47,.72,1.57,1.4,3.17,2.01,4.79,.25,.66,.59,.92,1.28,.95,3.95,.17,7.8,.93,11.53,2.22,.89,.31,1.02-.32,1.34-.74,1.11-1.46,1.1-1.47-.39-2.42-1.28-.82-2.57-1.63-3.84-2.47-3.33-2.22-3.83-6.36-.96-9.15,6.42-6.26,14.1-8.32,22.65-5.84,8.57,2.49,13.87,8.43,15.94,17.13,1.03,4.31,.66,8.59-.87,12.75-1.42,3.84-5.3,5.19-8.76,3.05-2.08-1.29-4.12-2.65-6.2-3.96-.44-.28-.95-.96-1.39,0-.32,.7-1.58,1.1-.4,2.25,6.47,6.32,10.78,13.94,12.39,22.84,3.19,17.66-2.26,32.29-15.93,43.87-.29,.25-.57,.52-.9,.7-.56,.31-.52,.62-.17,1.1,.99,1.38,1.93,2.78,2.88,4.18,2.57,3.81,1.25,7.75-3.11,9.3-.06,.02-.08,.13-.12,.2h-2.79c-2.42-1.03-3.74-3.14-5.09-5.22-.55-.85-1.2-1.64-1.7-2.52-.46-.8-.9-.93-1.8-.61-9.07,3.22-18.24,3.44-27.5,.79-1.16-.33-2.44-1.36-3.42-.9-.96,.46-1.46,1.89-2.16,2.89-1.52,2.19-2.76,4.66-5.56,5.56h-2.79Zm-12.69-46.57c.02,.46,0,.93,.06,1.39,3.11,22.28,23.54,37.35,45.75,33.75,18.09-2.93,32.22-18.72,32.84-37.1,.49-14.66-5.46-26.3-17.45-34.72-5.46-3.84-11.61-5.99-18.29-6.52-3.34-.46-6.7-.34-9.98,.29-15.51,2.98-25.99,11.97-31.26,26.88-1.82,5.16-2.4,10.55-1.67,16.03ZM76.08,5.3c-4.59-.04-9.11,1.73-12.31,4.83-1.04,1.01-1.04,1.23,.14,1.98,9.03,5.8,18.07,11.59,27.11,17.38,1.13,.72,1.34,.64,1.78-.65,3.99-11.46-4.52-23.45-16.72-23.55Zm-51.81-.2c-13.71-.02-22.44,12.41-18.05,23.96,.47,1.24,.73,1.35,1.81,.62,8.9-6.01,17.79-12.03,26.68-18.05,1.18-.8,1.19-1.02,.11-1.98-3.36-2.98-7.3-4.5-10.55-4.55Zm21.38,14.48c-.51-1.24-1.01-2.39-1.45-3.57-.22-.59-.55-.83-1.21-.82-1.02,.01-2.02-.2-2.95-.65-.31-.15-.56-.29-.89,.04-1.4,1.38-3.13,2.29-4.72,3.41-1.87,1.31-1.89,1.3-.52,3.11,.3,.39,.44,1.02,1.25,.73,3.35-1.21,6.83-1.86,10.49-2.24ZM24.63,111.45c.77-.08,1.53-.47,2.07-1.25,1.12-1.64,2.22-3.29,3.37-4.91,.33-.47,.42-.74-.2-1.04-1.2-.6-2.38-1.27-3.55-1.94-.33-.19-.57-.33-.84,.08-1.17,1.76-2.47,3.44-3.5,5.27-.96,1.71,.53,3.85,2.64,3.79Zm52.61-2.8c-.07-.27-.08-.64-.25-.91-1.17-1.8-2.38-3.58-3.57-5.37-.21-.32-.43-.29-.74-.11-1.24,.71-2.49,1.41-3.76,2.07-.42,.22-.44,.41-.2,.77,1.25,1.8,2.43,3.66,3.76,5.4,.71,.93,1.79,1.21,2.97,.76,1.17-.45,1.65-1.37,1.79-2.61ZM40.73,7.57c-.06,1.27,.94,2.38,2.22,2.46,1.35,.09,2.49-.92,2.56-2.24,.06-1.28-.93-2.38-2.22-2.46-1.36-.08-2.49,.91-2.56,2.24Zm-11.2,16.22c-.33-.44-.65-1.01-1.1-1.43-.37-.34-.67,.17-.95,.35-1.79,1.18-3.55,2.41-5.35,3.58-.61,.39-.42,.73-.05,1.08,.32,.3,.37,1.19,1.18,.59,1.82-1.36,3.76-2.55,5.78-3.59,.2-.1,.51-.15,.48-.59Zm47.51,3.06c.05-.21-.14-.31-.32-.42-1.98-1.27-3.94-2.58-5.96-3.79-.91-.54-.89,.6-1.3,.94-.51,.42,.02,.6,.34,.77,1.94,1.01,3.81,2.15,5.59,3.42,.6,.43,1.58-.09,1.65-.92Z"/>
      <path class="cls-5" d="M53.15,24.77c6.68,.54,12.83,2.69,18.29,6.52,11.99,8.42,17.94,20.06,17.45,34.72-.62,18.38-14.75,34.17-32.84,37.1-22.21,3.6-42.64-11.48-45.75-33.75-.06-.46-.04-.93-.06-1.39,.16,.24,.36,.47,.48,.73,1.75,3.66,4.17,6.82,7.15,9.55,.86,.79,1.63,1.83,2.93,2.01,0,.09-.03,.13-.12,.13,.12,.1,.24,.19,.36,.29,.12,.17,.25,.34,.36,.52,7.28,11.76,20.29,17.63,33.9,15.3,18.75-3.21,30.97-22.52,25.89-40.92-2.42-8.74-7.63-15.35-15.34-20.03-.1-.13-.19-.25-.29-.38l-.02,.11-.11,.03c.18-.29,.11-.55-.1-.81-1.5-1.82-3.13-3.49-4.91-5.04-2.21-1.91-4.73-3.31-7.26-4.7Z"/>
      <path class="cls-2" d="M20.79,80.26c-1.3-.19-2.07-1.22-2.93-2.01-2.97-2.73-5.39-5.89-7.15-9.55-.12-.26-.32-.49-.48-.73-.73-5.48-.15-10.87,1.67-16.03,5.27-14.91,15.75-23.89,31.26-26.88,3.28-.63,6.64-.75,9.98-.29,2.53,1.39,5.05,2.79,7.26,4.7,1.78,1.54,3.42,3.22,4.91,5.04,.21,.26,.28,.51,.1,.8-6.49-3.48-13.37-4.76-20.69-3.77-15.51,2.1-27.8,15.87-28.13,31.54-.13,6.11,1.29,11.82,4.19,17.17Z"/>
      <path class="cls-2" d="M76.08,5.3c12.2,.1,20.72,12.09,16.72,23.55-.45,1.28-.66,1.37-1.78,.65-9.04-5.79-18.08-11.58-27.11-17.38-1.18-.76-1.19-.97-.14-1.98,3.2-3.1,7.72-4.87,12.31-4.83Z"/>
      <path class="cls-2" d="M24.28,5.1c3.25,.05,7.19,1.57,10.55,4.55,1.08,.96,1.07,1.18-.11,1.98-8.89,6.02-17.79,12.04-26.68,18.05-1.08,.73-1.34,.63-1.81-.62C1.84,17.51,10.56,5.08,24.28,5.1Zm-9.03,5.62c-.9,.11-1.68,.43-2.4,.88-2.49,1.57-3.7,3.94-4.19,6.78-.29,1.67,.41,2.87,1.98,3.23,1.31,.3,2.55-.58,2.92-2.12,.4-1.69,.98-3.23,2.7-4.04,.33-.15,.59-.48,.82-.78,.67-.88,.57-1.8,.1-2.73-.41-.82-1.18-1.02-1.93-1.2Z"/>
      <path class="cls-1" d="M24.63,111.45c-2.12,.05-3.61-2.08-2.64-3.79,1.03-1.83,2.33-3.51,3.5-5.27,.27-.41,.52-.26,.84-.08,1.17,.67,2.34,1.34,3.55,1.94,.61,.31,.53,.57,.2,1.04-1.14,1.62-2.25,3.27-3.37,4.91-.54,.78-1.3,1.17-2.07,1.25Z"/>
      <path class="cls-1" d="M77.24,108.66c-.14,1.24-.63,2.16-1.79,2.61-1.17,.45-2.25,.17-2.97-.76-1.33-1.74-2.51-3.6-3.76-5.4-.25-.35-.22-.55,.2-.77,1.27-.66,2.52-1.36,3.76-2.07,.31-.18,.53-.21,.74,.11,1.19,1.79,2.4,3.57,3.57,5.37,.17,.27,.18,.64,.25,.91Z"/>
      <path class="cls-1" d="M40.73,7.57c.06-1.33,1.2-2.32,2.56-2.24,1.28,.08,2.28,1.18,2.22,2.46-.06,1.33-1.21,2.33-2.56,2.24-1.28-.08-2.28-1.19-2.22-2.46Z"/>
      <path class="cls-1" d="M29.53,23.8c.02,.44-.29,.49-.48,.59-2.03,1.03-3.96,2.22-5.78,3.59-.81,.6-.85-.29-1.18-.59-.37-.34-.56-.68,.05-1.08,1.8-1.17,3.56-2.4,5.35-3.58,.28-.18,.58-.69,.95-.35,.45,.42,.77,.99,1.1,1.43Z"/>
      <path class="cls-1" d="M77.04,26.85c-.07,.83-1.05,1.35-1.65,.92-1.78-1.28-3.65-2.41-5.59-3.42-.32-.16-.85-.34-.34-.77,.41-.34,.4-1.49,1.3-.94,2.02,1.21,3.98,2.52,5.96,3.79,.18,.11,.37,.22,.32,.42Z"/>
      <path class="cls-4" d="M20.79,80.26c-2.91-5.35-4.32-11.06-4.19-17.17,.33-15.67,12.62-29.44,28.13-31.54,7.32-.99,14.19,.28,20.69,3.77,0,0,.11-.03,.11-.03,0,0,.02-.11,.02-.11-.08,.27,.15,.29,.29,.38,7.71,4.68,12.92,11.29,15.34,20.03,5.09,18.39-7.14,37.71-25.89,40.92-13.62,2.33-26.62-3.54-33.9-15.3-.11-.18-.24-.35-.36-.52-.08-.14-.1-.36-.36-.29,.09,0,.13-.04,.12-.13Zm7.39,4.61v-.08s0,.08,0,.08c.09,.14,.17,.3,.28,.41,7.77,7.37,16.94,10.26,27.4,7.94,15.87-3.53,25.71-18.48,22.88-34.5-1.12-6.34-4.05-11.8-8.83-16.18-.13-.16-.25-.34-.41-.48-9.19-7.87-19.56-9.96-30.86-5.69-12.97,4.9-20.59,18.1-18.7,31.85,.86,6.25,3.43,11.74,7.85,16.3,.13,.12,.26,.24,.39,.36Z"/>
      <path class="cls-6" d="M65.84,35.55c-.15-.09-.38-.11-.29-.38,.1,.13,.19,.25,.29,.38Z"/>
      <path class="cls-6" d="M20.67,80.39c.26-.07,.27,.15,.36,.29-.12-.1-.24-.19-.36-.29Z"/>
      <path class="cls-7" d="M15.25,10.71c.75,.19,1.52,.39,1.93,1.2,.47,.93,.57,1.86-.1,2.73-.23,.3-.5,.63-.82,.78-1.72,.81-2.3,2.35-2.7,4.04-.36,1.54-1.61,2.42-2.92,2.12-1.57-.36-2.27-1.56-1.98-3.23,.49-2.83,1.7-5.2,4.19-6.78,.72-.45,1.5-.76,2.4-.88Z"/>
      <path class="cls-1" d="M27.79,84.51c-4.42-4.56-6.99-10.05-7.85-16.3-1.89-13.75,5.73-26.94,18.7-31.85,11.3-4.27,21.67-2.19,30.86,5.69,.16,.13,.27,.32,.41,.48,.01,.17-.01,.35,.05,.5,1.84,4.55,2.24,9.32,1.95,14.14-.11,1.82-.31,3.68-.99,5.42-.88,.02-1.77-.02-2.64,.06-.87,.08-1.39,.62-1.39,1.5,0,.88,.52,1.4,1.38,1.51,.54,.07,1.09,.04,1.63,.06-3.51,9.28-9.89,15.64-19.21,19.03-.02-.68-.04-1.35-.05-2.03,0-1.02-.52-1.65-1.52-1.65-1,0-1.51,.67-1.54,1.66-.03,1.01-.04,2.03-.05,3.04-4.72,1.16-9.46,1.32-14.25,.32-1.72-.36-3.33-1.16-5.12-1.23l.02-.08s-.01,.08-.01,.08c.02-.28-.17-.34-.39-.36Zm24.27-20.35c-.07-1.03-.56-1.73-1.33-2.27-3.53-2.48-7.06-4.97-10.59-7.45-.61-.43-1.26-.71-2.01-.59-1.11,.19-1.85,.83-2.13,1.92-.3,1.17,.17,2.09,1.1,2.76,2.58,1.84,5.16,3.7,7.79,5.46,.87,.58,.81,.95,.22,1.71-3.6,4.6-7.17,9.23-10.72,13.87-1.05,1.37-.9,2.91,.29,3.82,1.16,.88,2.66,.66,3.68-.65,4.34-5.59,8.65-11.19,12.97-16.79,.43-.55,.69-1.16,.71-1.79Zm-1.11-20.4s0,0,.01,0c0-.63,.05-1.27-.01-1.9-.08-.87-.59-1.39-1.49-1.39-.84,0-1.42,.46-1.47,1.26-.08,1.34-.08,2.7,.02,4.03,.06,.82,.71,1.26,1.51,1.22,.79-.03,1.35-.5,1.43-1.34,.06-.63,.01-1.26,.01-1.89Zm-22.34,18.63s0,0,0,0c-.72,0-1.44-.08-2.14,.02-.79,.11-1.27,.64-1.27,1.48,0,.84,.46,1.43,1.26,1.49,1.3,.1,2.61,.08,3.91,.02,.82-.04,1.31-.63,1.34-1.43,.03-.86-.46-1.45-1.33-1.57-.58-.08-1.18-.01-1.77-.01Z"/>
      <path class="cls-3" d="M70.92,62.59c.68-1.74,.88-3.6,.99-5.42,.29-4.83-.11-9.59-1.95-14.14-.06-.15-.03-.33-.05-.5,4.78,4.39,7.71,9.84,8.83,16.18,2.83,16.02-7.01,30.97-22.88,34.5-10.46,2.33-19.63-.57-27.4-7.94-.12-.11-.19-.27-.28-.41,1.78,.08,3.4,.87,5.12,1.23,4.79,1,9.52,.84,14.25-.32,.11,1.08,.52,1.93,1.78,1.79,1.2-.14,1.37-1.05,1.33-2.06-.01-.25,.03-.5,.04-.75,9.32-3.39,15.7-9.76,19.21-19.03,.33-.01,.67-.03,1-.04,1.77,0,2.52-.46,2.53-1.52,0-1.04-.7-1.49-2.51-1.57Z"/>
      <path class="cls-3" d="M27.79,84.51c.22,.02,.41,.07,.39,.36-.13-.12-.26-.24-.39-.36Z"/>
      <path class="cls-4" d="M52.06,64.16c-.02,.63-.29,1.24-.71,1.79-4.32,5.6-8.63,11.2-12.97,16.79-1.02,1.31-2.52,1.53-3.68,.65-1.19-.91-1.34-2.46-.29-3.82,3.56-4.64,7.12-9.27,10.72-13.87,.59-.75,.65-1.12-.22-1.71-2.64-1.76-5.21-3.62-7.79-5.46-.94-.67-1.41-1.59-1.1-2.76,.28-1.09,1.02-1.73,2.13-1.92,.75-.13,1.41,.16,2.01,.59,3.53,2.49,7.05,4.97,10.59,7.45,.77,.54,1.26,1.24,1.33,2.27Z"/>
      <path class="cls-4" d="M50.95,43.76c0,.63,.05,1.27-.01,1.89-.08,.84-.63,1.31-1.43,1.34-.8,.03-1.45-.4-1.51-1.22-.1-1.34-.1-2.69-.02-4.03,.05-.8,.63-1.27,1.47-1.26,.9,0,1.41,.52,1.49,1.39,.06,.63,.01,1.26,.01,1.9,0,0,0,0-.01,0Z"/>
      <path class="cls-4" d="M28.6,62.39c.59,0,1.19-.06,1.77,.01,.87,.12,1.36,.7,1.33,1.57-.03,.8-.52,1.38-1.34,1.43-1.3,.07-2.61,.08-3.91-.02-.79-.06-1.26-.64-1.26-1.49,0-.85,.47-1.37,1.27-1.48,.7-.1,1.43-.02,2.14-.02,0,0,0,0,0,0Z"/>
      <path class="cls-4" d="M50.69,84.76c-.02,.25-.06,.5-.04,.75,.04,1.01-.13,1.92-1.33,2.06-1.26,.14-1.67-.71-1.78-1.79,.02-1.01,.02-2.03,.05-3.04,.03-.99,.54-1.66,1.54-1.66,1,0,1.51,.63,1.52,1.65,0,.68,.03,1.35,.05,2.03Z"/>
      <path class="cls-4" d="M70.92,62.59c1.81,.09,2.52,.53,2.51,1.57,0,1.06-.76,1.51-2.53,1.52-.33,0-.67,.02-1,.04-.54-.02-1.1,0-1.63-.06-.86-.11-1.38-.64-1.38-1.51,0-.88,.52-1.42,1.39-1.5,.88-.08,1.76-.04,2.64-.06Z"/>
    </g>
  </g>
</svg>